<?xml version="1.0" encoding="UTF-8" standalone="no" ?>
<!DOCTYPE svg PUBLIC "-//W3C//DTD SVG 1.1//EN" "http://www.w3.org/Graphics/SVG/1.1/DTD/svg11.dtd">
<svg xmlns="http://www.w3.org/2000/svg" xmlns:xlink="http://www.w3.org/1999/xlink" version="1.1" width="512" height="512" viewBox="0 0 512 512" xml:space="preserve">
<desc>Created with Fabric.js 5.2.4</desc>
<defs>
</defs>
<g transform="matrix(1 0 0 1 256 256)" id="e3ea256e-5f34-40b3-b351-7977abecf2ab"  >
<rect style="stroke: none; stroke-width: 1; stroke-dasharray: none; stroke-linecap: butt; stroke-dashoffset: 0; stroke-linejoin: miter; stroke-miterlimit: 4; fill: rgb(255,255,255); fill-rule: nonzero; opacity: 1; visibility: hidden;" vector-effect="non-scaling-stroke"  x="-256" y="-256" rx="0" ry="0" width="512" height="512" />
</g>
<g transform="matrix(Infinity NaN NaN Infinity 0 0)" id="d56f0fb8-90ab-45f8-9361-abb48a852b3d"  >
</g>
<g transform="matrix(1.72 0 0 1.72 256 256)" id="58a3b77c-d556-4022-850a-0cb35747347a"  >
<path style="stroke: rgb(0,0,0); stroke-width: 0; stroke-dasharray: none; stroke-linecap: butt; stroke-dashoffset: 0; stroke-linejoin: miter; stroke-miterlimit: 4; fill: rgb(0,0,0); fill-rule: nonzero; opacity: 1;" vector-effect="non-scaling-stroke"  transform=" translate(-250.57, -242.01)" d="M 151.890625 99.449219 C 140.34375 102.632812 128.324219 112.804688 123.207031 123.71875 L 120.5 129.5 L 120.230469 239.421875 C 119.929688 360.609375 119.667969 355.007812 126.121094 365.152344 C 133.113281 376.140625 148.167969 385.941406 156.734375 385.085938 C 157.960938 384.960938 159.394531 385.128906 159.921875 385.453125 C 161.671875 386.53125 338.089844 386.039062 344.933594 384.9375 C 351.332031 383.902344 361.195312 380.316406 361.835938 378.789062 C 362.019531 378.347656 362.535156 378.210938 362.976562 378.484375 C 363.417969 378.757812 364.523438 377.847656 365.433594 376.460938 C 366.40625 374.980469 367.585938 374.222656 368.292969 374.628906 C 368.957031 375.007812 369.175781 374.964844 368.785156 374.527344 C 368.003906 373.664062 373.8125 365 375.171875 365 C 375.625 365 375.925781 364.664062 375.839844 364.25 C 375.75 363.835938 376.234375 362.148438 376.910156 360.5 C 377.589844 358.851562 378.390625 356.269531 378.695312 354.765625 C 378.996094 353.261719 379.527344 352.207031 379.871094 352.421875 C 380.984375 353.109375 381.535156 142.828125 380.441406 135.308594 C 378.074219 119.035156 364.191406 103.796875 347.742188 99.421875 C 340.394531 97.464844 158.996094 97.492188 151.890625 99.449219 M 351.121094 110.136719 C 358.714844 113.695312 364.035156 118.730469 367.5625 125.695312 L 370.5 131.5 L 370.5 352.5 L 367.640625 358.320312 C 364.171875 365.382812 355.945312 372.332031 348.425781 374.546875 C 344.050781 375.832031 330.25 376.003906 248.425781 375.769531 L 153.5 375.5 L 148.671875 373.269531 C 140.710938 369.597656 136.359375 365.472656 132.785156 358.214844 L 129.5 351.542969 L 129.5 130.5 L 131.871094 125.679688 C 136.128906 117.039062 143.382812 111.21875 154 107.929688 C 155.375 107.503906 199.023438 107.234375 251 107.328125 L 345.5 107.5 L 351.121094 110.136719 M 151.242188 121.996094 C 144.835938 125.898438 144.007812 128.652344 144.003906 146.027344 C 144 163.011719 144.453125 164.632812 150.011719 167.507812 C 153.9375 169.535156 345.96875 169.757812 349.902344 167.734375 C 355.75 164.730469 356.5 162.203125 356.5 145.507812 C 356.5 128.453125 356.042969 127.039062 349.011719 122.25 L 345.703125 120 L 250.101562 120.003906 C 156.46875 120.007812 154.433594 120.046875 151.242188 121.996094 M 345.925781 131.636719 C 347.78125 133.988281 348 135.632812 348 147.136719 L 348 160 L 153 160 L 153 146.054688 C 153 132.78125 153.105469 132.039062 155.222656 130.554688 C 157.195312 129.175781 167.910156 129 250.648438 129 L 343.855469 129 L 345.925781 131.636719 M 161.480469 181.394531 C 147.347656 187.550781 145.085938 222.792969 158.226562 232.167969 C 161.546875 234.535156 187.835938 236.261719 194.625 234.558594 C 210.640625 230.539062 214.035156 192.835938 199.265625 183.050781 L 194.65625 180 L 179.578125 180.039062 C 169.390625 180.066406 163.519531 180.503906 161.480469 181.394531 M 232.5 181.660156 C 217.28125 189.6875 215.519531 223.03125 229.839844 232.113281 C 235.46875 235.683594 261.984375 236.5625 268.300781 233.390625 C 283.121094 225.945312 283.679688 190.371094 269.101562 182.175781 C 264.035156 179.328125 237.628906 178.957031 232.5 181.660156 M 302.167969 182.144531 C 287.414062 189.449219 287.269531 225.484375 301.960938 232.980469 C 307.488281 235.800781 333.574219 235.988281 338.894531 233.25 C 354.386719 225.273438 354 187.910156 338.359375 181.375 C 332.558594 178.953125 307.542969 179.484375 302.167969 182.144531 M 194.152344 189.082031 C 197.914062 191.09375 199.953125 197.640625 199.976562 207.78125 C 200.019531 225.019531 197.933594 227 179.726562 227 C 159.753906 227 158 225.339844 158 206.449219 L 158 194.800781 L 161.398438 191.398438 L 164.800781 188 L 178.464844 188 C 186.34375 188 192.984375 188.457031 194.152344 189.082031 M 266.964844 190.964844 C 270.296875 194.527344 271 197.613281 271 208.65625 C 271 224.761719 268.398438 227 249.683594 227 C 231.5 227 229 224.523438 229 206.515625 C 229 189.660156 230.84375 188.101562 250.847656 188.039062 L 264.199219 188 L 266.964844 190.964844 M 337.601562 191.398438 L 341 194.800781 L 341 207.175781 C 341 225.351562 339.300781 227 320.597656 227 C 302.511719 227 300 224.558594 300 206.988281 C 300 189.671875 301.835938 188 320.824219 188 L 334.199219 188 L 337.601562 191.398438 M 167.5 244.898438 C 153.828125 246.945312 149.453125 254.472656 150.148438 274.746094 C 150.839844 295.015625 155.464844 298.941406 178.683594 298.976562 C 203.03125 299.015625 208 294.390625 208 271.699219 C 208 247.753906 197.015625 240.488281 167.5 244.898438 M 235.667969 245.378906 C 223.738281 248.722656 220.761719 254.421875 221.1875 273.078125 C 221.539062 288.277344 222.609375 291.136719 229.832031 296.089844 C 233.496094 298.605469 255.925781 300.175781 264.695312 298.527344 C 282.277344 295.230469 285.453125 256.210938 268.925781 246.53125 C 264.582031 243.984375 243.261719 243.246094 235.667969 245.378906 M 307.917969 244.882812 C 302.3125 246.050781 297.230469 249.753906 294.242188 254.835938 L 291.5 259.5 L 291.652344 304.046875 C 291.832031 356.335938 291.957031 356.953125 303.445312 362.40625 C 309.1875 365.132812 334.292969 364.652344 339.46875 361.71875 C 349.710938 355.917969 350.136719 353.433594 349.789062 301.09375 L 349.5 257.195312 L 346.363281 252.847656 C 340.664062 244.9375 324.089844 241.507812 307.917969 244.882812 M 194.5 254.40625 C 198.5 257.027344 200.105469 261.867188 199.59375 269.753906 C 199.351562 273.464844 199.121094 278.433594 199.078125 280.796875 C 198.929688 288.945312 196.691406 290 179.5625 290 L 165.03125 290 L 161.765625 287.082031 L 158.5 284.167969 L 158.175781 272.832031 C 157.777344 259.050781 158.578125 256.539062 164.144531 254.046875 C 169.867188 251.484375 190.410156 251.730469 194.5 254.40625 M 267.273438 255.808594 C 273.304688 261.835938 272.402344 285.1875 266.011719 288.492188 C 261.769531 290.6875 237.367188 290.644531 234.214844 288.4375 C 227.046875 283.417969 226.667969 257.613281 233.710938 254.4375 C 241.328125 251.003906 263.363281 251.90625 267.273438 255.808594 M 334.511719 253.441406 C 342.152344 256.632812 342.070312 256.0625 341.769531 305.144531 C 341.4375 358.839844 342.625 356 320.5 356 C 299.042969 356 300 358.457031 300 303.484375 C 300 254.308594 299.753906 255.699219 309 252.652344 C 312.574219 251.472656 331.179688 252.046875 334.511719 253.441406 M 246.921875 309 C 224.804688 309.816406 220.625 314.5 221.175781 337.851562 C 221.699219 360.019531 226.105469 364 250.132812 364 C 274.210938 364 279.019531 359.355469 278.976562 336.128906 C 278.9375 312.195312 273.984375 308.003906 246.921875 309 M 160.46875 310.996094 C 145.367188 318.472656 146.023438 355.109375 161.382812 362.085938 C 171.90625 366.863281 196.652344 364.316406 202.703125 357.832031 C 212.46875 347.363281 209.902344 318.128906 198.636719 311.527344 C 192.679688 308.035156 167.164062 307.683594 160.46875 310.996094 M 196.03125 320.035156 C 199.339844 323.578125 200.433594 329.710938 199.84375 341.414062 C 199.183594 354.5 196.195312 356.371094 176.820312 355.828125 L 165.03125 355.5 L 158.5 348.96875 L 158.167969 336.464844 L 157.835938 323.964844 L 164.800781 317 L 193.199219 317 L 196.03125 320.035156 M 265.882812 318.632812 C 269.683594 321.292969 271 325.992188 271 336.902344 C 271 354.523438 269.050781 356.21875 249.265625 355.789062 L 236.03125 355.5 L 232.765625 352.234375 C 226.78125 346.246094 227.453125 323.933594 233.769531 318.964844 C 237.207031 316.261719 262.128906 316.003906 265.882812 318.632812" stroke-linecap="round" />
</g>
</svg>